<svg version="1.1" xmlns="http://www.w3.org/2000/svg" xmlns:xlink="http://www.w3.org/1999/xlink" viewBox="0 0 172 172"><g fill="none" fill-rule="nonzero" stroke="none" stroke-width="1" stroke-linecap="butt" stroke-linejoin="miter" stroke-miterlimit="10" stroke-dasharray="" stroke-dashoffset="0" font-family="none" font-weight="none" font-size="none" text-anchor="none" style="mix-blend-mode: normal"><path d="M0,172v-172h172v172z" fill="none"></path><g fill="#ffffff"><path d="M131.12133,112.60625c0,9.589 -3.5475,17.33975 -10.63892,23.24508c-7.095,5.90892 -16.54783,8.86158 -28.36208,8.86158c-6.278,0 -12.82833,-0.96392 -19.651,-2.89175v26.5955c0,1.978 -1.60533,3.58333 -3.58333,3.58333h-24.42042c-1.978,0 -3.58333,-1.60533 -3.58333,-3.58333v-98.89283c0,-12.50583 3.8055,-22.44242 11.42008,-29.80975c7.61458,-7.36733 17.89158,-11.04742 30.84175,-11.04742c8.84725,0 16.48692,1.32225 22.91183,3.96675c6.42492,2.6445 11.31975,6.364 14.68092,11.1585c3.36117,4.7945 5.04175,10.33075 5.04175,16.60875c0,5.38933 -1.50858,10.10858 -4.52217,14.16133c-3.01717,4.05275 -7.46408,7.12008 -13.34792,9.19483v0.29742c7.12008,2.12492 12.76742,5.77275 16.942,10.93633c4.17458,5.16358 6.27083,11.04025 6.27083,17.61567zM99.08633,110.52792c0,-4.05275 -1.892,-7.31717 -5.67242,-9.78967c-3.096,-2.02458 -7.01258,-3.21783 -11.74975,-3.58692c-1.84542,-0.14333 -3.268,-1.70208 -3.268,-3.55467v-14.1685c0,-1.81317 1.376,-3.35042 3.17842,-3.53675c8.11267,-0.8385 12.169,-5.08833 12.169,-12.74592c0,-3.41133 -0.93883,-6.16692 -2.8165,-8.26675c-1.87767,-2.09983 -4.32508,-3.14975 -7.34225,-3.14975c-3.65858,0 -6.42492,1.37242 -8.30617,4.11367c-1.87767,2.74483 -2.8165,6.43925 -2.8165,11.08683v50.568c4.59742,2.71975 9.16975,4.07783 13.717,4.07783c4.05275,0 7.21683,-0.99975 9.49225,-3.00283c2.279,-1.9995 3.41492,-4.68342 3.41492,-8.04458z"></path></g></g></svg>